<svg version="1" xmlns="http://www.w3.org/2000/svg" width="1333.333" height="1333.333" viewBox="0 0 1000.000000 1000.000000"><path d="M464.7 103.7c-.4.4-1.8.8-3 .9-6.8.4-20.3 1.6-20.7 1.9-.3.1-3.6.6-7.3 1-3.7.3-7.6.8-8.5 1-.9.1-3.7.6-6.2 1s-5.4.9-6.5 1.1c-1.1.2-3.3.7-5 1-1.6.3-4.1.8-5.5 1-1.4.1-4.3.7-6.5 1.3-2.2.5-5.1 1.2-6.5 1.4-1.4.3-4.5 1-7 1.7s-5.2 1.3-6 1.5c-5.7 1.1-43.3 12.7-48.5 15-1.6.7-5.7 2.3-9 3.5-3.3 1.3-7.8 3.1-10 4-2.2 1-6.5 2.8-9.5 4.1-14.2 6-43.1 21.1-57.8 30.2-4.6 2.9-9.1 5.6-10.1 6.2-.9.5-3.1 2-4.8 3.2-1.7 1.3-3.6 2.3-4.2 2.3-.6 0-1.1.4-1.1.8s-1.5 1.6-3.2 2.7c-1.8 1-3.5 2.1-3.8 2.4-.3.4-1.8 1.5-3.5 2.5-1.6 1.1-3.4 2.3-4 2.8-.5.5-3.7 2.9-7 5.4-23.8 17.9-44 36.1-64 57.6-13.7 14.7-16 17.3-15.7 18 .1.5-.2.8-.6.8-.5 0-3.3 3-6.3 6.7-3 3.8-6.4 7.9-7.6 9.3-1.3 1.4-2.3 3-2.3 3.7 0 .6-.3 1.3-.8 1.5-1 .4-5.8 6.7-11.7 15.3-2.7 3.8-5.1 7.2-5.5 7.5-.4.3-1 1.2-1.3 2-.4.8-1.5 2.7-2.5 4.2-.9 1.4-3 4.8-4.6 7.5-1.6 2.6-3.2 5-3.5 5.3-.3.3-1.2 1.6-2 2.9-9.9 17.6-15.6 28-17.8 32.8-1.5 3.2-3.1 5.9-3.5 6.1-.4.2-.8.9-.8 1.5 0 .7-1.4 4.1-3.2 7.7-1.7 3.6-3.2 6.9-3.3 7.5-.2.5-1.4 3.5-2.7 6.5-1.4 3-4 9.3-5.7 14-1.8 4.7-3.7 9.4-4.1 10.5-.9 2-8.2 24.2-8.6 26-.2.5-.7 2.5-1.3 4.2-.5 1.8-.7 3.3-.3 3.3.4 0 .2.4-.3.8-.8.6-2.8 7.2-5 16.7-.2 1.1-1.4 6-2.5 11-1.1 4.9-2.3 10.1-2.5 11.5-.3 1.4-.7 3.6-1 5-.2 1.3-.7 4-1 6-.3 2-.7 4.5-.9 5.6-.2 1.2-.7 4.5-1.1 7.4-.4 2.9-.9 6.2-1.1 7.4-.4 1.9-1 7.3-2 17.1C1 568.3.5 580.8.6 606c0 25.2.4 35.2 1.9 48 .2 1.9.6 6 1 9 .3 3 .7 7 1 8.7.3 1.8.7 4.8 1 6.5.7 5.1 1.7 11.1 2.2 13.3.2 1.1.6 3.6.9 5.5.3 1.9 1.1 6.3 1.9 9.6.8 3.4 1.6 7.3 1.9 8.5 1 5 1.5 7.1 2.1 8.9.3 1 .8 2.8 1 3.9.3 1.2.7 2.9.9 3.8.7 3.1 6.7 23.7 7.3 25.3.3.8.7 1.7.8 2 .4 1.8 2.8 8.8 3.5 10.5.4 1.1 1.8 4.9 3.1 8.5 7.2 20.8 29.7 68.1 38.1 80.2 1 1.4 1.8 2.9 1.8 3.3 0 .3 1.2 2.5 2.8 4.8 1.5 2.3 3.2 4.9 3.7 5.8.6.9 1.9 2.9 2.9 4.5 1.1 1.6 3.1 4.7 4.5 6.9s2.8 4.2 3.1 4.5c.3.3 2 2.6 3.7 5.2l3.1 4.8 2.6-3.8c1.4-2.1 2.6-4.3 2.6-4.9 0-.6.3-1.3.8-1.5.4-.2 3.5-4.8 6.8-10.3 3.4-5.5 8.4-13.7 11.3-18.3 2.8-4.6 5.1-8.7 5.1-9.2s.4-1 .8-1.2c.9-.4 12.2-18.7 12.2-19.8 0-.4.6-1.3 1.4-1.9.8-.7 2.7-3.6 4.1-6.4 1.5-2.9 3.3-5.9 4-6.7.9-1.2 12.7-20.1 18.8-30.5.7-1.1 2.8-4.5 4.8-7.5 1.9-3 3.8-6.2 4.2-7 .4-.8 1.7-3.1 3-5.1 1.2-1.9 3.5-5.7 5.2-8.5 1.6-2.7 3.3-5.1 3.7-5.2.4-.2.8-.8.8-1.3s1.6-3.3 3.5-6.3 3.5-6 3.5-6.6c0-.5.5-1 1-1 .6 0 1-.7 1-1.5s.5-1.5 1-1.5c.6 0 1-.4 1-.9s3.3-6.3 7.3-12.8c14.2-22.8 21.7-35.4 21.7-36.3 0-.6.4-1 1-1 .5 0 1.7-1.5 2.5-3.3.8-1.7 2.7-5.1 4.3-7.5 1.5-2.3 6-9.7 10.1-16.5 4.1-6.7 9.2-14.8 11.3-17.9 2.1-3.1 3.8-6.4 3.8-7.2 0-.9.4-1.6.8-1.6.7 0 6.4-8.8 10.4-16.1.9-1.7 2.3-3.8 3.1-4.7.9-.9 1.5-1.9 1.5-2.2-.1-.4 3.8-6.8 9.1-15 .8-1.4 2.1-3.4 2.7-4.5.6-1.1 4.7-7.9 9.1-15 4.4-7.2 8.6-14.1 9.4-15.5.8-1.4 1.7-2.7 2-3 .4-.3 1.5-2.1 2.5-4 1.1-1.9 2.9-4.9 4.2-6.7 1.2-1.7 2.2-3.4 2.2-3.7 0-.4.8-1.9 1.9-3.4 3.6-5.3 13.6-21.6 14.4-23.6.8-2.1.9-2 2.9.4 2.6 3.3 12.8 20.8 12.8 22 0 .6.5 1 1 1 .6 0 1 .4 1 .9 0 .8 10.1 18.7 13 23.1.6.8 1.3 2.2 1.7 3 .3.8 1.7 3 3 4.7 1.3 1.8 2.2 3.3 1.9 3.3-.3 0 1.9 4 4.9 9 3 4.9 5.5 9.4 5.5 10 0 .5.4 1 .9 1s1.1.8 1.5 1.7c.3 1 1.4 3.1 2.3 4.8 4.7 7.8 9 15.1 9.6 16.5.4.8 1.6 2.8 2.7 4.5 1.1 1.6 2.4 3.9 3 5 .5 1.1 2.1 3.8 3.5 6s2.8 4.7 3.2 5.5c.3.8 1.7 3.2 3.1 5.3 1.3 2.2 3.5 6 4.9 8.5 1.4 2.6 3.1 5.3 3.9 6.1 1.1 1.2 1.2 1.1.9-.5-.2-1-.4-1.9-.5-1.9-.2 0-1.4-5.8-2.5-12.8-.3-1.7-.9-3.9-1.2-4.7-.3-.8-.8-2.6-1-4-.2-1.4-1.1-5.7-1.9-9.5-.9-3.9-1.8-8.1-2-9.5-.3-1.4-.7-3.1-1-3.9-.2-.8-.7-3-1-5-.8-4.5-1.2-6.6-1.4-6.6-.2 0-.5-1.4-1.3-6-.7-3.4-1.1-5.3-3.2-15-.9-3.9-1.8-8.4-2.1-10-.3-1.7-.9-4.4-1.4-6-2.4-8.3-2.3-11.3.6-16.3 1.6-2.6 3.5-5.9 4.4-7.3 3-5.2 16.1-27.4 17-28.9 6.1-9.9 12-20.3 12-21 0-.6.5-1 1-1 .6 0 1-.4 1-.9 0-.8 7.7-14.2 19-33.1.5-.8 6.1-10.5 12.6-21.5 6.4-11 12.4-21.1 13.3-22.5 2-2.9 14.9-24.8 17-28.7l1.4-2.6 1.8 2.4c1 1.3 2.8 4.2 3.9 6.4s2.5 4.7 3 5.5c1.2 1.7 25.9 44.2 29.8 51 1.4 2.5 4.8 8.3 7.6 13 2.8 4.7 5.8 9.9 6.6 11.5.8 1.7 1.7 3.2 2 3.5 1.1 1.1 3.1 4.6 4.1 7.2.6 1.6 1.5 2.8 2 2.8s.9.4.9.9c0 .8 3.4 6.8 8.7 15.6.7 1.1 1.5 2.6 1.9 3.4.4.8 3.7 6.4 7.2 12.5 3.6 6.1 7.9 13.6 9.7 16.6 1.8 3 5.6 9.5 8.5 14.5 2.9 4.9 6.4 11 7.8 13.5 1.4 2.5 4.2 7.4 6.4 10.9 2.1 3.4 3.8 6.7 3.8 7.2s.3.9.8.9c.4 0 1.6 1.9 2.7 4.3 1.1 2.3 2.2 4.4 2.6 4.7.3.3 1.8 2.6 3.2 5.2 1.5 2.7 3.9 6.9 5.4 9.5 1.4 2.7 4.1 7.2 6 10.1 1.8 2.9 3.3 5.4 3.3 5.7 0 .4 6.7 12 9 15.5.6.8 1.6 2.6 2.2 4 .7 1.4 1.5 2.7 1.9 3 .6.5 6.6 11 8.3 14.7.6 1.3 1.4 2.3 1.9 2.3.4 0 .7.7.7 1.5s.4 1.5 1 1.5c.5 0 .3-1.8-.5-4s-1.4-4.3-1.4-4.5c0-.5-.8-5.1-1.6-9.5-.4-1.7-3.6-17-4-18.5-.1-.6-.5-2.1-.8-3.5-.4-1.4-.9-3.7-1.2-5.3-1.1-5.7-1.8-9.3-3.9-18.8-2.1-9.5-2.7-12.2-3-13.9-.6-3.3-2.8-13.6-3.3-15-.3-.8-.7-2.7-.9-4.2-.2-1.5-.8-4.5-1.3-6.7-.8-3.6-.5-4.5 2.8-9.8 2.1-3.2 4-6.5 4.4-7.3.9-1.7 2.5-4.4 4.9-8 .9-1.4 2.5-4.1 3.5-6 4.5-8.2 6.6-11.1 7.5-10.2.5.5 3.8 5.6 7.3 11.3 3.5 5.7 6.8 10.9 7.2 11.4.4.6 1.5 2.3 2.3 3.8 1.7 3 11.9 19.7 20 32.7 2.9 4.7 6.5 10.5 8 13 9.5 15.6 19.6 32.1 22.1 35.8 1.6 2.4 2.9 4.5 2.9 4.8 0 .3 1.4 2.5 3 4.9 1.7 2.4 3 4.8 3 5.4 0 .6.5 1.1 1 1.1.6 0 1 .5 1 1.1 0 .6 1.5 3.4 3.3 6.2 4 6.1 20.8 33.4 32.6 52.7 4.5 7.4 10.1 16.4 12.3 20 2.2 3.6 4.8 7.8 5.8 9.5 2.3 3.9 11.6 19 14.5 23.5 4.3 6.7 17 27.4 17.4 28.5.2.5 2.1 3.5 4.1 6.5 2 3 4 6.2 4.3 7 .4.8 2.1 3.5 3.7 6s3.7 5.8 4.6 7.5c.9 1.6 3.1 5.2 4.9 8 6.8 10.6 16.5 26.5 16.5 27 0 .3.5 1.1 1.1 1.8.5.7 8.9 14 18.5 29.7s17.8 28.6 18.3 28.8c.4.1 1.6-1 2.6-2.5s2.2-3.2 2.7-3.8c1.6-1.8 13.8-20.7 18.1-27.9 2.3-3.9 4.6-7.4 5.2-7.8.5-.4.6-.8.2-.8-.5 0 .1-1.3 1.2-2.8 2.8-4 19.1-36.2 19.1-37.9 0-.7.5-1.3 1-1.3.6 0 1-.7 1-1.5 0-.9 1.1-3.7 2.5-6.4 1.3-2.7 2.1-5.1 1.8-5.5-.4-.3-.1-.6.5-.6.7 0 1.2-.6 1.2-1.3 0-.7 1.6-5 3.5-9.6 1.9-4.5 3.5-8.7 3.5-9.3 0-.5.6-2.4 1.4-4.1 1.5-3.3 7.9-22.9 9.3-28.2.4-1.7.8-3.2.8-3.5.1-.3.5-1.2.8-2 .4-.8 1.1-3.5 1.7-6 1-4 4.4-18 5.4-22 .2-.8.6-3.1 1-5 .3-1.9.9-4.6 1.2-6 .3-1.4.7-3.4.9-4.5 1-5.8 1.7-10 2.1-11.9.2-1.1.7-4.8 1-8.1.3-3.3.8-6.3 1-6.6.2-.3.6-3.5.9-7 .4-3.5.8-7.5 1.1-8.9 1.8-10.9 2.5-67.4 1.1-87-1.3-16.3-2.4-27-3.2-30-.2-.8-.7-3.8-1-6.5-.3-2.8-.8-6.4-1.1-8-.4-1.7-.8-4.1-1-5.5-.1-1.4-.5-3.4-.7-4.5-.2-1.1-.8-3.8-1.2-6-1.5-8.2-2.3-12-2.5-12-.2 0-.4-1.2-1.3-5.5-.3-1.4-1-4.4-1.6-6.8-.6-2.3-1.6-6.1-2.1-8.5-.6-2.3-2.2-7.8-3.6-12.2-1.4-4.4-2.7-8.5-2.8-9-1.1-5.4-12.4-35.9-17.2-46.3-1.3-2.9-2.4-5.5-2.4-5.7 0-.9-14.8-30.6-18.6-37.5-2.9-5.3-11.4-19.5-18.7-31.4-.7-1.1-2-2.9-2.9-4-1-1.1-1.8-2.4-1.8-2.9 0-.4-.6-1.5-1.2-2.2-1.6-1.7-3-3.6-4.3-5.7-3.2-5.1-9.1-13.4-10.1-14.3-.6-.6-2.4-2.8-4-5s-3.3-4.5-3.9-5.1c-.5-.6-2.1-2.5-3.5-4.3-1.4-1.8-3.4-4.2-4.5-5.5-14.2-16.4-14.6-16.8-26.5-29.1-15-15.5-30.2-29.1-47-42.5-3.6-2.8-7.2-5.6-8-6.3-.8-.7-3.7-2.8-6.5-4.7-2.7-1.9-5.2-3.8-5.5-4.1-.3-.3-3-2.2-6-4.2s-5.9-4-6.5-4.5c-.5-.4-5.3-3.4-10.6-6.7-5.2-3.3-10.4-6.5-11.5-7.2-4.3-2.8-27.2-15.3-30.9-17-2.2-1-4.3-2.2-4.6-2.6-.3-.5-.9-.8-1.3-.7-.3 0-3.4-1.2-6.9-2.8-14.1-6.6-17.6-8.2-25.2-11.2-4.4-1.8-11.1-4.3-15-5.7-3.8-1.3-7.9-2.8-9-3.3-2-.9-17.2-5.5-29.5-9-11.2-3.2-23.6-6.2-30.5-7.5-1.6-.3-4.1-.8-5.5-1.1-1.4-.3-3.8-.7-5.5-1-1.6-.3-5.2-.9-8-1.4-4.9-1-9-1.6-17-2.5-2.2-.3-5.3-.7-7-1-1.6-.2-6.1-.7-10-1.1-3.8-.4-9-.9-11.5-1.1-8.4-.8-65.1-1.1-68.5-.3-2 .4-3.5.4-3.7-.2-.2-.5-.7-.6-1.1-.1z"/></svg>