<?xml version="1.0" encoding="utf-8"?>
<svg version="1.0" xmlns="http://www.w3.org/2000/svg" viewBox="0 0 370 310">
    <path d="M78.8 197.5c-14.6-20.2-23.2-45-23.2-71.8 0-67.6 54.7-122.3 122.1-122.3s122.1 54.8 122.1 122.3c0 26.8-8.6 51.6-23.2 71.8l-58.7-95.4-5.7 9.6 5.7 26.6-40.3-69.1-24.9 42.2 5.8 26.9-21.1-36.2-58.6 95.4z" fill="#4680ff"/>
    <path d="M39.8 305.8H52v-57.5H40.1v37.5L15 248.3H1.3v57.5h11.8v-39.7l26.7 39.7zM59 286.3c0-11.7 9.7-20.6 21.7-20.6 11.9 0 21.4 8.7 21.4 20.3 0 11.8-9.7 20.6-21.6 20.6-12 .1-21.5-8.5-21.5-20.3zm11.8-.2c0 5.9 4.4 10.1 9.8 10.1s9.7-4.1 9.7-10.1c0-5.9-4.4-10-9.8-10s-9.7 4.1-9.7 10zm61.6-19.5c-.8-.2-2.2-.4-3.1-.4-4.1 0-8.1 1.7-10.2 6.2h-.1v-5.7h-11v39.2h11.3v-17.2c0-7.3 3.8-11.1 9.4-11.1.5 0 2.1 0 3.7.3v-11.3zm32.4 39.2v-5h-.1c-3.7 5.4-9.6 5.7-12.3 5.7-11.5 0-18.8-9.8-18.8-20.4 0-9.9 7.6-20.3 18.9-20.3 2.3 0 7.8.4 11.8 5.2h.1v-22.8H176v57.5h-11.2zm0-19.7c0-5.9-4.4-9.9-9.8-9.9s-9.8 4-9.8 9.9 4.4 10.1 9.8 10.1 9.8-4.1 9.8-10.1zm36.3 19.7h13.8l21-57.5h-12.7L208.1 292l-15-43.7h-12.9l20.9 57.5zm82.5-39.1c0 12.7-9 18.8-21.1 18.8h-9.1v20.3h-12v-57.5h21.5c11.6 0 20.7 6.2 20.7 18.4zm-12.1.3c0-5.6-4.7-7.5-9.7-7.5h-8.5v14.9h8.6c4.8 0 9.6-2 9.6-7.4zm57.1 38.8h12.2v-57.5H329v37.5l-25.1-37.5h-13.7v57.5H302v-39.7l26.6 39.7zm18.9-46.9c0-5.8 4.7-10.6 10.6-10.6s10.6 4.8 10.6 10.6c0 5.9-4.7 10.6-10.6 10.6s-10.6-4.8-10.6-10.6zm2 0c0 4.8 3.8 8.7 8.6 8.7 4.7 0 8.6-3.9 8.6-8.7s-3.9-8.7-8.6-8.7c-4.8 0-8.6 3.9-8.6 8.7zm7 6H354v-12.1h4.8c2.4 0 4.3 1.2 4.3 3.8 0 1.8-1 2.9-2.3 3.5l2.5 4.8h-2.7l-2.2-4.4h-1.9v4.4zm2.1-9.7h-2.1v3h2.1c.9 0 1.9-.4 1.9-1.5 0-1.2-1-1.5-1.9-1.5z" fill="#2c3038"/>
</svg>
